# xmcd
#
# Track frame offsets:
#	150
#	24330
#	78348
#	94930
#	122916
#	150779
#	177933
#
# Disc length: 2548 seconds
#
# Revision: 2
# Processed by: cddbd v1.5.1PL2 Copyright (c) Steve Scherf et al.
# Submitted via: EasyCDDAExtractor 8.0.2.1
#
DISCID=4509f207
DTITLE=Blue Oyster Cult - The Forum Inglewood 13-11-76 Disc 2
DYEAR=1976
DGENRE=Hard Rock
TTITLE0=Dominance and Submission
TTITLE1=Buck's Boogie - Drums Solo - Buck's Boogie
TTITLE2=This Ain't The Summer Of Love
TTITLE3=Bass Solo - 5 Guitars
TTITLE4=Born To Be Wild
TTITLE5=(Don't Fear) The Reaper 
TTITLE6=Maserati GT - I Ain't Got You (Cut)
EXTD=
EXTT0=
EXTT1=
EXTT2=
EXTT3=
EXTT4=
EXTT5=
EXTT6=
PLAYORDER=
